<svg width="126" height="129" viewBox="0 0 126 129" fill="none" xmlns="http://www.w3.org/2000/svg">
<path fill-rule="evenodd" clip-rule="evenodd" d="M117 10.32H58.6965C55.8077 4.21844 49.6089 0 42.4286 0C35.2482 0 29.0494 4.21844 26.1606 10.32H9C4.02947 10.32 0 14.3629 0 19.35C0 24.3371 4.02947 28.38 9 28.38H27.6548C30.9074 33.0588 36.3117 36.12 42.4286 36.12C48.5454 36.12 53.9498 33.0588 57.2024 28.38H117C121.971 28.38 126 24.3371 126 19.35C126 14.3629 121.971 10.32 117 10.32ZM42.4286 25.8C46.6891 25.8 50.1429 22.3347 50.1429 18.06C50.1429 13.7853 46.6891 10.32 42.4286 10.32C38.1681 10.32 34.7143 13.7853 34.7143 18.06C34.7143 22.3347 38.1681 25.8 42.4286 25.8ZM9 56.76H67.3036C70.1925 50.6584 76.391 46.44 83.5714 46.44C90.7519 46.44 96.9503 50.6584 99.8392 56.76H117C121.971 56.76 126 60.8029 126 65.79C126 70.7771 121.971 74.82 117 74.82H98.3451C95.0924 79.4988 89.6882 82.56 83.5714 82.56C77.4547 82.56 72.0505 79.4988 68.7978 74.82H9C4.02944 74.82 0 70.7771 0 65.79C0 60.8029 4.02944 56.76 9 56.76ZM83.5714 72.24C79.3109 72.24 75.8571 68.7747 75.8571 64.5C75.8571 60.2253 79.3109 56.76 83.5714 56.76C87.8319 56.76 91.2857 60.2253 91.2857 64.5C91.2857 68.7747 87.8319 72.24 83.5714 72.24ZM58.6964 103.2H117C121.971 103.2 126 107.243 126 112.23C126 117.217 121.971 121.26 117 121.26H57.2022C53.9495 125.939 48.5453 129 42.4286 129C36.3118 129 30.9076 125.939 27.6549 121.26H9C4.02944 121.26 0 117.217 0 112.23C0 107.243 4.02944 103.2 9 103.2H26.1608C29.0497 97.0984 35.2481 92.88 42.4286 92.88C49.609 92.88 55.8075 97.0984 58.6964 103.2ZM50.1429 110.94C50.1429 115.215 46.6891 118.68 42.4286 118.68C38.1681 118.68 34.7143 115.215 34.7143 110.94C34.7143 106.665 38.1681 103.2 42.4286 103.2C46.6891 103.2 50.1429 106.665 50.1429 110.94Z" fill="black"/>
</svg>
