<svg width="98" height="98" viewBox="0 0 98 98" fill="none" xmlns="http://www.w3.org/2000/svg">
<path fill-rule="evenodd" clip-rule="evenodd" d="M63.2263 39.8326C63.2263 52.7526 52.7526 63.2263 39.8326 63.2263C26.9126 63.2263 16.4388 52.7526 16.4388 39.8326C16.4388 26.9126 26.9126 16.4388 39.8326 16.4388C52.7526 16.4388 63.2263 26.9126 63.2263 39.8326ZM59.7927 74.3108C53.924 77.7157 47.1059 79.6651 39.8326 79.6651C17.8336 79.6651 0 61.8315 0 39.8326C0 17.8336 17.8336 0 39.8326 0C61.8315 0 79.6651 17.8336 79.6651 39.8326C79.6651 47.6759 77.3982 54.9897 73.4838 61.1547L95.0483 81.6409C98.8457 85.2485 98.9996 91.2514 95.3921 95.0488C91.7845 98.8463 85.7816 99.0002 81.9841 95.3926L59.7927 74.3108Z" fill="white"/>
</svg>
