<svg width="300" height="290" viewBox="0 0 300 290" fill="none" xmlns="http://www.w3.org/2000/svg">
<path fill-rule="evenodd" clip-rule="evenodd" d="M150 0C159.707 0 167.576 7.49422 167.576 16.7388V53.5642C167.576 62.8088 159.707 70.303 150 70.303C140.293 70.303 132.424 62.8088 132.424 53.5642V16.7388C132.424 7.49422 140.293 0 150 0Z" fill="white"/>
<path fill-rule="evenodd" clip-rule="evenodd" d="M150 219.697C159.707 219.697 167.576 227.191 167.576 236.436V273.261C167.576 282.506 159.707 290 150 290C140.293 290 132.424 282.506 132.424 273.261V236.436C132.424 227.191 140.293 219.697 150 219.697Z" fill="white"/>
<path fill-rule="evenodd" clip-rule="evenodd" d="M299.394 140.606C299.394 150.313 290.963 158.182 280.563 158.182L239.134 158.182C228.734 158.182 220.303 150.313 220.303 140.606C220.303 130.899 228.734 123.03 239.134 123.03L280.563 123.03C290.963 123.03 299.394 130.899 299.394 140.606Z" fill="white"/>
<path fill-rule="evenodd" clip-rule="evenodd" d="M79.697 140.606C79.697 150.313 71.266 158.182 60.8658 158.182L19.4372 158.182C9.03705 158.182 0.606047 150.313 0.606047 140.606C0.606048 130.899 9.03705 123.03 19.4372 123.03L60.8658 123.03C71.266 123.03 79.697 130.899 79.697 140.606Z" fill="white"/>
<path fill-rule="evenodd" clip-rule="evenodd" d="M255.87 42.2395C262.632 49.0023 262.632 59.967 255.87 66.7298L228.93 93.6692C222.167 100.432 211.203 100.432 204.44 93.6692C197.677 86.9064 197.677 75.9417 204.44 69.1789L231.379 42.2395C238.142 35.4767 249.107 35.4767 255.87 42.2395Z" fill="white"/>
<path fill-rule="evenodd" clip-rule="evenodd" d="M99.1295 198.978C105.892 205.741 105.892 216.705 99.1295 223.468L72.1901 250.408C65.4273 257.17 54.4626 257.17 47.6998 250.408C40.937 243.645 40.937 232.68 47.6998 225.917L74.6392 198.978C81.402 192.215 92.3667 192.215 99.1295 198.978Z" fill="white"/>
<path fill-rule="evenodd" clip-rule="evenodd" d="M47.7024 42.2392C54.4652 35.4764 65.4299 35.4764 72.1927 42.2392L99.1321 69.1786C105.895 75.9415 105.895 86.9062 99.1321 93.669C92.3693 100.432 81.4046 100.432 74.6418 93.669L47.7024 66.7296C40.9396 59.9668 40.9396 49.0021 47.7024 42.2392Z" fill="white"/>
<path fill-rule="evenodd" clip-rule="evenodd" d="M204.442 198.978C211.205 192.215 222.17 192.215 228.933 198.978L255.872 225.917C262.635 232.68 262.635 243.645 255.872 250.407C249.109 257.17 238.145 257.17 231.382 250.407L204.442 223.468C197.68 216.705 197.68 205.741 204.442 198.978Z" fill="white"/>
<path fill-rule="evenodd" clip-rule="evenodd" d="M150 205.636C184.945 205.636 213.273 178.489 213.273 145C213.273 111.511 184.945 84.3636 150 84.3636C115.055 84.3636 86.7273 111.511 86.7273 145C86.7273 178.489 115.055 205.636 150 205.636ZM150 246.061C208.241 246.061 255.455 200.814 255.455 145C255.455 89.1858 208.241 43.9394 150 43.9394C91.7591 43.9394 44.5455 89.1858 44.5455 145C44.5455 200.814 91.7591 246.061 150 246.061Z" fill="white"/>
</svg>
